M48
; DRILL file {KiCad (5.1.5)-3} date 12/09/2020 19:15:11
; FORMAT={-:-/ absolute / inch / decimal}
; #@! TF.CreationDate,2020-09-12T19:15:11+01:00
; #@! TF.GenerationSoftware,Kicad,Pcbnew,(5.1.5)-3
FMAT,2
INCH
T1C0.0157
T2C0.0236
T3C0.0315
T4C0.0335
T5C0.0472
T6C0.0598
T7C0.0787
T8C0.0906
%
G90
G05
T1
X4.8954Y-2.8412
X4.8954Y-4.0612
X4.8954Y-5.2812
X4.9854Y-2.2837
X4.9854Y-3.5037
X4.9854Y-4.7237
X5.0754Y-2.1037
X5.0754Y-3.3237
X5.0754Y-4.5437
X5.7154Y-2.8412
X5.7154Y-4.0612
X5.7154Y-5.2812
X5.8054Y-2.2837
X5.8054Y-3.5037
X5.8054Y-4.7237
X5.8954Y-2.1037
X5.8954Y-3.3237
X5.8954Y-4.5437
X6.5354Y-2.8412
X6.5354Y-4.0612
X6.5354Y-5.2812
X6.6254Y-2.2837
X6.6254Y-3.5037
X6.6254Y-4.7237
X6.7154Y-2.1037
X6.7154Y-3.3237
X6.7154Y-4.5437
X7.3554Y-2.8412
X7.3554Y-4.0612
X7.3554Y-5.2812
X7.4454Y-2.2837
X7.4454Y-3.5037
X7.4454Y-4.7237
X7.5354Y-2.1037
X7.5354Y-3.3237
X7.5354Y-4.5437
T3
X6.6504Y-3.98
X6.6504Y-4.0587
X6.6504Y-4.1375
X5.0104Y-3.98
X5.0104Y-4.0587
X5.0104Y-4.1375
X5.8304Y-2.76
X5.8304Y-2.8387
X5.8304Y-2.9175
X5.8304Y-3.98
X5.8304Y-4.0587
X5.8304Y-4.1375
X7.4704Y-2.76
X7.4704Y-2.8387
X7.4704Y-2.9175
X6.6504Y-5.2
X6.6504Y-5.2787
X6.6504Y-5.3575
X5.0104Y-5.2
X5.0104Y-5.2787
X5.0104Y-5.3575
X5.8304Y-5.2
X5.8304Y-5.2787
X5.8304Y-5.3575
X5.0104Y-2.76
X5.0104Y-2.8387
X5.0104Y-2.9175
X6.6504Y-2.76
X6.6504Y-2.8387
X6.6504Y-2.9175
X7.4704Y-5.2
X7.4704Y-5.2787
X7.4704Y-5.3575
X7.4704Y-3.98
X7.4704Y-4.0587
X7.4704Y-4.1375
T4
X4.493Y-3.9903
X4.493Y-4.1871
X6.953Y-3.9903
X6.953Y-4.1871
X5.313Y-3.9903
X5.313Y-4.1871
X5.313Y-5.2103
X5.313Y-5.4071
X4.493Y-5.2103
X4.493Y-5.4071
X5.313Y-2.7703
X5.313Y-2.9671
X4.493Y-2.7703
X4.493Y-2.9671
X6.133Y-2.7703
X6.133Y-2.9671
X6.953Y-5.2103
X6.953Y-5.4071
X6.133Y-5.2103
X6.133Y-5.4071
X6.953Y-2.7703
X6.953Y-2.9671
X6.133Y-3.9903
X6.133Y-4.1871
T5
X6.6504Y-3.8934
X6.6504Y-4.2241
X5.0104Y-3.8934
X5.0104Y-4.2241
X5.8304Y-2.6734
X5.8304Y-3.0041
X5.8304Y-3.8934
X5.8304Y-4.2241
X7.4704Y-2.6734
X7.4704Y-3.0041
X6.6504Y-5.1134
X6.6504Y-5.4441
X5.0104Y-5.1134
X5.0104Y-5.4441
X5.8304Y-5.1134
X5.8304Y-5.4441
X5.0104Y-2.6734
X5.0104Y-3.0041
X6.6504Y-2.6734
X6.6504Y-3.0041
X7.4704Y-5.1134
X7.4704Y-5.4441
X7.4704Y-3.8934
X7.4704Y-4.2241
T6
X6.3644Y-3.2478
X6.3644Y-4.0544
X4.7244Y-3.2478
X4.7244Y-4.0544
X5.5444Y-4.4678
X5.5444Y-5.2744
X5.5444Y-3.2478
X5.5444Y-4.0544
X6.3644Y-2.0278
X6.3644Y-2.8344
X5.5444Y-2.0278
X5.5444Y-2.8344
X4.7244Y-2.0278
X4.7244Y-2.8344
X6.3644Y-4.4678
X6.3644Y-5.2744
X4.7244Y-4.4678
X4.7244Y-5.2744
X7.1844Y-2.0278
X7.1844Y-2.8344
X7.1844Y-4.4678
X7.1844Y-5.2744
X7.1844Y-3.2478
X7.1844Y-4.0544
T7
X4.7314Y-4.8947
X4.7314Y-2.4547
X4.7314Y-3.6747
X5.5514Y-4.8947
X6.3714Y-3.6747
X6.3714Y-2.4547
X7.1914Y-4.8947
X5.5514Y-3.6747
X7.1914Y-3.6747
X6.3714Y-4.8947
X5.5514Y-2.4547
X7.1914Y-2.4547
T8
X4.7217Y-2.9858
X4.7217Y-4.2058
X4.7217Y-5.4258
X5.5417Y-2.9858
X5.5417Y-4.2058
X5.5417Y-5.4258
X6.3617Y-2.9858
X6.3617Y-4.2058
X6.3617Y-5.4258
X7.1817Y-2.9858
X7.1817Y-4.2058
X7.1817Y-5.4258
T2
G00X4.3729Y-3.9509
M15
G01X4.4004Y-3.9509
M16
G05
G00X4.4004Y-4.2265
M15
G01X4.3729Y-4.2265
M16
G05
G00X6.8329Y-3.9509
M15
G01X6.8604Y-3.9509
M16
G05
G00X6.8604Y-4.2265
M15
G01X6.8329Y-4.2265
M16
G05
G00X5.1929Y-3.9509
M15
G01X5.2204Y-3.9509
M16
G05
G00X5.2204Y-4.2265
M15
G01X5.1929Y-4.2265
M16
G05
G00X5.1929Y-5.1709
M15
G01X5.2204Y-5.1709
M16
G05
G00X5.2204Y-5.4465
M15
G01X5.1929Y-5.4465
M16
G05
G00X4.3729Y-5.1709
M15
G01X4.4004Y-5.1709
M16
G05
G00X4.4004Y-5.4465
M15
G01X4.3729Y-5.4465
M16
G05
G00X5.1929Y-2.7309
M15
G01X5.2204Y-2.7309
M16
G05
G00X5.2204Y-3.0065
M15
G01X5.1929Y-3.0065
M16
G05
G00X4.3729Y-2.7309
M15
G01X4.4004Y-2.7309
M16
G05
G00X4.4004Y-3.0065
M15
G01X4.3729Y-3.0065
M16
G05
G00X6.0129Y-2.7309
M15
G01X6.0404Y-2.7309
M16
G05
G00X6.0404Y-3.0065
M15
G01X6.0129Y-3.0065
M16
G05
G00X6.8329Y-5.1709
M15
G01X6.8604Y-5.1709
M16
G05
G00X6.8604Y-5.4465
M15
G01X6.8329Y-5.4465
M16
G05
G00X6.0129Y-5.1709
M15
G01X6.0404Y-5.1709
M16
G05
G00X6.0404Y-5.4465
M15
G01X6.0129Y-5.4465
M16
G05
G00X6.8329Y-2.7309
M15
G01X6.8604Y-2.7309
M16
G05
G00X6.8604Y-3.0065
M15
G01X6.8329Y-3.0065
M16
G05
G00X6.0129Y-3.9509
M15
G01X6.0404Y-3.9509
M16
G05
G00X6.0404Y-4.2265
M15
G01X6.0129Y-4.2265
M16
G05
T0
M30
