G04 #@! TF.GenerationSoftware,KiCad,Pcbnew,(5.1.5)-3*
G04 #@! TF.CreationDate,2020-09-12T19:14:49+01:00*
G04 #@! TF.ProjectId,OTK_Panel,4f544b5f-5061-46e6-956c-2e6b69636164,rev?*
G04 #@! TF.SameCoordinates,Original*
G04 #@! TF.FileFunction,Legend,Top*
G04 #@! TF.FilePolarity,Positive*
%FSLAX46Y46*%
G04 Gerber Fmt 4.6, Leading zero omitted, Abs format (unit mm)*
G04 Created by KiCad (PCBNEW (5.1.5)-3) date 2020-09-12 19:14:49*
%MOMM*%
%LPD*%
G04 APERTURE LIST*
%ADD10C,0.050000*%
%ADD11C,0.153000*%
%ADD12C,0.150000*%
%ADD13C,0.120000*%
%ADD14C,0.500000*%
G04 APERTURE END LIST*
D10*
X192734500Y-108806300D02*
X197734500Y-108798300D01*
X192734500Y-77818300D02*
X197734500Y-77818300D01*
X109422500Y-108806300D02*
X104422500Y-108810300D01*
X109422500Y-77818300D02*
X104422500Y-77820300D01*
X104422500Y-139790300D02*
X109422500Y-139794300D01*
X104422500Y-46820300D02*
X104422500Y-139790300D01*
X109422500Y-46830300D02*
X104422500Y-46820300D01*
X192734500Y-139794300D02*
X197734500Y-139790300D01*
X197734500Y-46830300D02*
X197734500Y-139790300D01*
X192734500Y-46830300D02*
X197734500Y-46830300D01*
D11*
X143284690Y-138086109D02*
X143398976Y-138124204D01*
X143589452Y-138124204D01*
X143665642Y-138086109D01*
X143703738Y-138048014D01*
X143741833Y-137971823D01*
X143741833Y-137895633D01*
X143703738Y-137819442D01*
X143665642Y-137781347D01*
X143589452Y-137743252D01*
X143437071Y-137705157D01*
X143360880Y-137667061D01*
X143322785Y-137628966D01*
X143284690Y-137552776D01*
X143284690Y-137476585D01*
X143322785Y-137400395D01*
X143360880Y-137362300D01*
X143437071Y-137324204D01*
X143627547Y-137324204D01*
X143741833Y-137362300D01*
X144084690Y-138124204D02*
X144084690Y-137590871D01*
X144084690Y-137324204D02*
X144046595Y-137362300D01*
X144084690Y-137400395D01*
X144122785Y-137362300D01*
X144084690Y-137324204D01*
X144084690Y-137400395D01*
X144465642Y-137590871D02*
X144465642Y-138124204D01*
X144465642Y-137667061D02*
X144503738Y-137628966D01*
X144579928Y-137590871D01*
X144694214Y-137590871D01*
X144770404Y-137628966D01*
X144808500Y-137705157D01*
X144808500Y-138124204D01*
X145494214Y-138086109D02*
X145418023Y-138124204D01*
X145265642Y-138124204D01*
X145189452Y-138086109D01*
X145151357Y-138009919D01*
X145151357Y-137705157D01*
X145189452Y-137628966D01*
X145265642Y-137590871D01*
X145418023Y-137590871D01*
X145494214Y-137628966D01*
X145532309Y-137705157D01*
X145532309Y-137781347D01*
X145151357Y-137857538D01*
X133556404Y-135336538D02*
X133556404Y-135184157D01*
X133594500Y-135107966D01*
X133670690Y-135031776D01*
X133823071Y-134993680D01*
X134089738Y-134993680D01*
X134242119Y-135031776D01*
X134318309Y-135107966D01*
X134356404Y-135184157D01*
X134356404Y-135336538D01*
X134318309Y-135412728D01*
X134242119Y-135488919D01*
X134089738Y-135527014D01*
X133823071Y-135527014D01*
X133670690Y-135488919D01*
X133594500Y-135412728D01*
X133556404Y-135336538D01*
X134356404Y-134650823D02*
X133556404Y-134650823D01*
X134356404Y-134193680D01*
X133556404Y-134193680D01*
D10*
X109422500Y-139794300D02*
X109422500Y-108806300D01*
X171906500Y-139794300D02*
X171906500Y-108806300D01*
X130250500Y-139794300D02*
X109422500Y-139794300D01*
X171906500Y-139794300D02*
X151078500Y-139794300D01*
X130250500Y-108806300D02*
X130250500Y-139794300D01*
X151078500Y-108806300D02*
X151078500Y-139794300D01*
X171906500Y-108806300D02*
X171906500Y-139794300D01*
X151078500Y-108806300D02*
X171906500Y-108806300D01*
X192734500Y-108806300D02*
X192734500Y-139794300D01*
X151078500Y-139794300D02*
X151078500Y-108806300D01*
X109422500Y-108806300D02*
X130250500Y-108806300D01*
X151078500Y-139794300D02*
X130250500Y-139794300D01*
X130250500Y-108806300D02*
X151078500Y-108806300D01*
X130250500Y-139794300D02*
X130250500Y-108806300D01*
X192734500Y-139794300D02*
X171906500Y-139794300D01*
X171906500Y-108806300D02*
X192734500Y-108806300D01*
D11*
X184940690Y-138086109D02*
X185054976Y-138124204D01*
X185245452Y-138124204D01*
X185321642Y-138086109D01*
X185359738Y-138048014D01*
X185397833Y-137971823D01*
X185397833Y-137895633D01*
X185359738Y-137819442D01*
X185321642Y-137781347D01*
X185245452Y-137743252D01*
X185093071Y-137705157D01*
X185016880Y-137667061D01*
X184978785Y-137628966D01*
X184940690Y-137552776D01*
X184940690Y-137476585D01*
X184978785Y-137400395D01*
X185016880Y-137362300D01*
X185093071Y-137324204D01*
X185283547Y-137324204D01*
X185397833Y-137362300D01*
X185740690Y-138124204D02*
X185740690Y-137590871D01*
X185740690Y-137324204D02*
X185702595Y-137362300D01*
X185740690Y-137400395D01*
X185778785Y-137362300D01*
X185740690Y-137324204D01*
X185740690Y-137400395D01*
X186121642Y-137590871D02*
X186121642Y-138124204D01*
X186121642Y-137667061D02*
X186159738Y-137628966D01*
X186235928Y-137590871D01*
X186350214Y-137590871D01*
X186426404Y-137628966D01*
X186464500Y-137705157D01*
X186464500Y-138124204D01*
X187150214Y-138086109D02*
X187074023Y-138124204D01*
X186921642Y-138124204D01*
X186845452Y-138086109D01*
X186807357Y-138009919D01*
X186807357Y-137705157D01*
X186845452Y-137628966D01*
X186921642Y-137590871D01*
X187074023Y-137590871D01*
X187150214Y-137628966D01*
X187188309Y-137705157D01*
X187188309Y-137781347D01*
X186807357Y-137857538D01*
X175212404Y-135336538D02*
X175212404Y-135184157D01*
X175250500Y-135107966D01*
X175326690Y-135031776D01*
X175479071Y-134993680D01*
X175745738Y-134993680D01*
X175898119Y-135031776D01*
X175974309Y-135107966D01*
X176012404Y-135184157D01*
X176012404Y-135336538D01*
X175974309Y-135412728D01*
X175898119Y-135488919D01*
X175745738Y-135527014D01*
X175479071Y-135527014D01*
X175326690Y-135488919D01*
X175250500Y-135412728D01*
X175212404Y-135336538D01*
X176012404Y-134650823D02*
X175212404Y-134650823D01*
X176012404Y-134193680D01*
X175212404Y-134193680D01*
X112728404Y-135336538D02*
X112728404Y-135184157D01*
X112766500Y-135107966D01*
X112842690Y-135031776D01*
X112995071Y-134993680D01*
X113261738Y-134993680D01*
X113414119Y-135031776D01*
X113490309Y-135107966D01*
X113528404Y-135184157D01*
X113528404Y-135336538D01*
X113490309Y-135412728D01*
X113414119Y-135488919D01*
X113261738Y-135527014D01*
X112995071Y-135527014D01*
X112842690Y-135488919D01*
X112766500Y-135412728D01*
X112728404Y-135336538D01*
X113528404Y-134650823D02*
X112728404Y-134650823D01*
X113528404Y-134193680D01*
X112728404Y-134193680D01*
X122456690Y-138086109D02*
X122570976Y-138124204D01*
X122761452Y-138124204D01*
X122837642Y-138086109D01*
X122875738Y-138048014D01*
X122913833Y-137971823D01*
X122913833Y-137895633D01*
X122875738Y-137819442D01*
X122837642Y-137781347D01*
X122761452Y-137743252D01*
X122609071Y-137705157D01*
X122532880Y-137667061D01*
X122494785Y-137628966D01*
X122456690Y-137552776D01*
X122456690Y-137476585D01*
X122494785Y-137400395D01*
X122532880Y-137362300D01*
X122609071Y-137324204D01*
X122799547Y-137324204D01*
X122913833Y-137362300D01*
X123256690Y-138124204D02*
X123256690Y-137590871D01*
X123256690Y-137324204D02*
X123218595Y-137362300D01*
X123256690Y-137400395D01*
X123294785Y-137362300D01*
X123256690Y-137324204D01*
X123256690Y-137400395D01*
X123637642Y-137590871D02*
X123637642Y-138124204D01*
X123637642Y-137667061D02*
X123675738Y-137628966D01*
X123751928Y-137590871D01*
X123866214Y-137590871D01*
X123942404Y-137628966D01*
X123980500Y-137705157D01*
X123980500Y-138124204D01*
X124666214Y-138086109D02*
X124590023Y-138124204D01*
X124437642Y-138124204D01*
X124361452Y-138086109D01*
X124323357Y-138009919D01*
X124323357Y-137705157D01*
X124361452Y-137628966D01*
X124437642Y-137590871D01*
X124590023Y-137590871D01*
X124666214Y-137628966D01*
X124704309Y-137705157D01*
X124704309Y-137781347D01*
X124323357Y-137857538D01*
X164112690Y-138086109D02*
X164226976Y-138124204D01*
X164417452Y-138124204D01*
X164493642Y-138086109D01*
X164531738Y-138048014D01*
X164569833Y-137971823D01*
X164569833Y-137895633D01*
X164531738Y-137819442D01*
X164493642Y-137781347D01*
X164417452Y-137743252D01*
X164265071Y-137705157D01*
X164188880Y-137667061D01*
X164150785Y-137628966D01*
X164112690Y-137552776D01*
X164112690Y-137476585D01*
X164150785Y-137400395D01*
X164188880Y-137362300D01*
X164265071Y-137324204D01*
X164455547Y-137324204D01*
X164569833Y-137362300D01*
X164912690Y-138124204D02*
X164912690Y-137590871D01*
X164912690Y-137324204D02*
X164874595Y-137362300D01*
X164912690Y-137400395D01*
X164950785Y-137362300D01*
X164912690Y-137324204D01*
X164912690Y-137400395D01*
X165293642Y-137590871D02*
X165293642Y-138124204D01*
X165293642Y-137667061D02*
X165331738Y-137628966D01*
X165407928Y-137590871D01*
X165522214Y-137590871D01*
X165598404Y-137628966D01*
X165636500Y-137705157D01*
X165636500Y-138124204D01*
X166322214Y-138086109D02*
X166246023Y-138124204D01*
X166093642Y-138124204D01*
X166017452Y-138086109D01*
X165979357Y-138009919D01*
X165979357Y-137705157D01*
X166017452Y-137628966D01*
X166093642Y-137590871D01*
X166246023Y-137590871D01*
X166322214Y-137628966D01*
X166360309Y-137705157D01*
X166360309Y-137781347D01*
X165979357Y-137857538D01*
X154384404Y-135336538D02*
X154384404Y-135184157D01*
X154422500Y-135107966D01*
X154498690Y-135031776D01*
X154651071Y-134993680D01*
X154917738Y-134993680D01*
X155070119Y-135031776D01*
X155146309Y-135107966D01*
X155184404Y-135184157D01*
X155184404Y-135336538D01*
X155146309Y-135412728D01*
X155070119Y-135488919D01*
X154917738Y-135527014D01*
X154651071Y-135527014D01*
X154498690Y-135488919D01*
X154422500Y-135412728D01*
X154384404Y-135336538D01*
X155184404Y-134650823D02*
X154384404Y-134650823D01*
X155184404Y-134193680D01*
X154384404Y-134193680D01*
X143284690Y-107098109D02*
X143398976Y-107136204D01*
X143589452Y-107136204D01*
X143665642Y-107098109D01*
X143703738Y-107060014D01*
X143741833Y-106983823D01*
X143741833Y-106907633D01*
X143703738Y-106831442D01*
X143665642Y-106793347D01*
X143589452Y-106755252D01*
X143437071Y-106717157D01*
X143360880Y-106679061D01*
X143322785Y-106640966D01*
X143284690Y-106564776D01*
X143284690Y-106488585D01*
X143322785Y-106412395D01*
X143360880Y-106374300D01*
X143437071Y-106336204D01*
X143627547Y-106336204D01*
X143741833Y-106374300D01*
X144084690Y-107136204D02*
X144084690Y-106602871D01*
X144084690Y-106336204D02*
X144046595Y-106374300D01*
X144084690Y-106412395D01*
X144122785Y-106374300D01*
X144084690Y-106336204D01*
X144084690Y-106412395D01*
X144465642Y-106602871D02*
X144465642Y-107136204D01*
X144465642Y-106679061D02*
X144503738Y-106640966D01*
X144579928Y-106602871D01*
X144694214Y-106602871D01*
X144770404Y-106640966D01*
X144808500Y-106717157D01*
X144808500Y-107136204D01*
X145494214Y-107098109D02*
X145418023Y-107136204D01*
X145265642Y-107136204D01*
X145189452Y-107098109D01*
X145151357Y-107021919D01*
X145151357Y-106717157D01*
X145189452Y-106640966D01*
X145265642Y-106602871D01*
X145418023Y-106602871D01*
X145494214Y-106640966D01*
X145532309Y-106717157D01*
X145532309Y-106793347D01*
X145151357Y-106869538D01*
X133556404Y-104348538D02*
X133556404Y-104196157D01*
X133594500Y-104119966D01*
X133670690Y-104043776D01*
X133823071Y-104005680D01*
X134089738Y-104005680D01*
X134242119Y-104043776D01*
X134318309Y-104119966D01*
X134356404Y-104196157D01*
X134356404Y-104348538D01*
X134318309Y-104424728D01*
X134242119Y-104500919D01*
X134089738Y-104539014D01*
X133823071Y-104539014D01*
X133670690Y-104500919D01*
X133594500Y-104424728D01*
X133556404Y-104348538D01*
X134356404Y-103662823D02*
X133556404Y-103662823D01*
X134356404Y-103205680D01*
X133556404Y-103205680D01*
D10*
X109422500Y-108806300D02*
X109422500Y-77818300D01*
X171906500Y-108806300D02*
X171906500Y-77818300D01*
X130250500Y-108806300D02*
X109422500Y-108806300D01*
X171906500Y-108806300D02*
X151078500Y-108806300D01*
X130250500Y-77818300D02*
X130250500Y-108806300D01*
X151078500Y-77818300D02*
X151078500Y-108806300D01*
X171906500Y-77818300D02*
X171906500Y-108806300D01*
X151078500Y-77818300D02*
X171906500Y-77818300D01*
X192734500Y-77818300D02*
X192734500Y-108806300D01*
X151078500Y-108806300D02*
X151078500Y-77818300D01*
X109422500Y-77818300D02*
X130250500Y-77818300D01*
X151078500Y-108806300D02*
X130250500Y-108806300D01*
X130250500Y-77818300D02*
X151078500Y-77818300D01*
X130250500Y-108806300D02*
X130250500Y-77818300D01*
X192734500Y-108806300D02*
X171906500Y-108806300D01*
X171906500Y-77818300D02*
X192734500Y-77818300D01*
D11*
X184940690Y-107098109D02*
X185054976Y-107136204D01*
X185245452Y-107136204D01*
X185321642Y-107098109D01*
X185359738Y-107060014D01*
X185397833Y-106983823D01*
X185397833Y-106907633D01*
X185359738Y-106831442D01*
X185321642Y-106793347D01*
X185245452Y-106755252D01*
X185093071Y-106717157D01*
X185016880Y-106679061D01*
X184978785Y-106640966D01*
X184940690Y-106564776D01*
X184940690Y-106488585D01*
X184978785Y-106412395D01*
X185016880Y-106374300D01*
X185093071Y-106336204D01*
X185283547Y-106336204D01*
X185397833Y-106374300D01*
X185740690Y-107136204D02*
X185740690Y-106602871D01*
X185740690Y-106336204D02*
X185702595Y-106374300D01*
X185740690Y-106412395D01*
X185778785Y-106374300D01*
X185740690Y-106336204D01*
X185740690Y-106412395D01*
X186121642Y-106602871D02*
X186121642Y-107136204D01*
X186121642Y-106679061D02*
X186159738Y-106640966D01*
X186235928Y-106602871D01*
X186350214Y-106602871D01*
X186426404Y-106640966D01*
X186464500Y-106717157D01*
X186464500Y-107136204D01*
X187150214Y-107098109D02*
X187074023Y-107136204D01*
X186921642Y-107136204D01*
X186845452Y-107098109D01*
X186807357Y-107021919D01*
X186807357Y-106717157D01*
X186845452Y-106640966D01*
X186921642Y-106602871D01*
X187074023Y-106602871D01*
X187150214Y-106640966D01*
X187188309Y-106717157D01*
X187188309Y-106793347D01*
X186807357Y-106869538D01*
X175212404Y-104348538D02*
X175212404Y-104196157D01*
X175250500Y-104119966D01*
X175326690Y-104043776D01*
X175479071Y-104005680D01*
X175745738Y-104005680D01*
X175898119Y-104043776D01*
X175974309Y-104119966D01*
X176012404Y-104196157D01*
X176012404Y-104348538D01*
X175974309Y-104424728D01*
X175898119Y-104500919D01*
X175745738Y-104539014D01*
X175479071Y-104539014D01*
X175326690Y-104500919D01*
X175250500Y-104424728D01*
X175212404Y-104348538D01*
X176012404Y-103662823D02*
X175212404Y-103662823D01*
X176012404Y-103205680D01*
X175212404Y-103205680D01*
X112728404Y-104348538D02*
X112728404Y-104196157D01*
X112766500Y-104119966D01*
X112842690Y-104043776D01*
X112995071Y-104005680D01*
X113261738Y-104005680D01*
X113414119Y-104043776D01*
X113490309Y-104119966D01*
X113528404Y-104196157D01*
X113528404Y-104348538D01*
X113490309Y-104424728D01*
X113414119Y-104500919D01*
X113261738Y-104539014D01*
X112995071Y-104539014D01*
X112842690Y-104500919D01*
X112766500Y-104424728D01*
X112728404Y-104348538D01*
X113528404Y-103662823D02*
X112728404Y-103662823D01*
X113528404Y-103205680D01*
X112728404Y-103205680D01*
X122456690Y-107098109D02*
X122570976Y-107136204D01*
X122761452Y-107136204D01*
X122837642Y-107098109D01*
X122875738Y-107060014D01*
X122913833Y-106983823D01*
X122913833Y-106907633D01*
X122875738Y-106831442D01*
X122837642Y-106793347D01*
X122761452Y-106755252D01*
X122609071Y-106717157D01*
X122532880Y-106679061D01*
X122494785Y-106640966D01*
X122456690Y-106564776D01*
X122456690Y-106488585D01*
X122494785Y-106412395D01*
X122532880Y-106374300D01*
X122609071Y-106336204D01*
X122799547Y-106336204D01*
X122913833Y-106374300D01*
X123256690Y-107136204D02*
X123256690Y-106602871D01*
X123256690Y-106336204D02*
X123218595Y-106374300D01*
X123256690Y-106412395D01*
X123294785Y-106374300D01*
X123256690Y-106336204D01*
X123256690Y-106412395D01*
X123637642Y-106602871D02*
X123637642Y-107136204D01*
X123637642Y-106679061D02*
X123675738Y-106640966D01*
X123751928Y-106602871D01*
X123866214Y-106602871D01*
X123942404Y-106640966D01*
X123980500Y-106717157D01*
X123980500Y-107136204D01*
X124666214Y-107098109D02*
X124590023Y-107136204D01*
X124437642Y-107136204D01*
X124361452Y-107098109D01*
X124323357Y-107021919D01*
X124323357Y-106717157D01*
X124361452Y-106640966D01*
X124437642Y-106602871D01*
X124590023Y-106602871D01*
X124666214Y-106640966D01*
X124704309Y-106717157D01*
X124704309Y-106793347D01*
X124323357Y-106869538D01*
X164112690Y-107098109D02*
X164226976Y-107136204D01*
X164417452Y-107136204D01*
X164493642Y-107098109D01*
X164531738Y-107060014D01*
X164569833Y-106983823D01*
X164569833Y-106907633D01*
X164531738Y-106831442D01*
X164493642Y-106793347D01*
X164417452Y-106755252D01*
X164265071Y-106717157D01*
X164188880Y-106679061D01*
X164150785Y-106640966D01*
X164112690Y-106564776D01*
X164112690Y-106488585D01*
X164150785Y-106412395D01*
X164188880Y-106374300D01*
X164265071Y-106336204D01*
X164455547Y-106336204D01*
X164569833Y-106374300D01*
X164912690Y-107136204D02*
X164912690Y-106602871D01*
X164912690Y-106336204D02*
X164874595Y-106374300D01*
X164912690Y-106412395D01*
X164950785Y-106374300D01*
X164912690Y-106336204D01*
X164912690Y-106412395D01*
X165293642Y-106602871D02*
X165293642Y-107136204D01*
X165293642Y-106679061D02*
X165331738Y-106640966D01*
X165407928Y-106602871D01*
X165522214Y-106602871D01*
X165598404Y-106640966D01*
X165636500Y-106717157D01*
X165636500Y-107136204D01*
X166322214Y-107098109D02*
X166246023Y-107136204D01*
X166093642Y-107136204D01*
X166017452Y-107098109D01*
X165979357Y-107021919D01*
X165979357Y-106717157D01*
X166017452Y-106640966D01*
X166093642Y-106602871D01*
X166246023Y-106602871D01*
X166322214Y-106640966D01*
X166360309Y-106717157D01*
X166360309Y-106793347D01*
X165979357Y-106869538D01*
X154384404Y-104348538D02*
X154384404Y-104196157D01*
X154422500Y-104119966D01*
X154498690Y-104043776D01*
X154651071Y-104005680D01*
X154917738Y-104005680D01*
X155070119Y-104043776D01*
X155146309Y-104119966D01*
X155184404Y-104196157D01*
X155184404Y-104348538D01*
X155146309Y-104424728D01*
X155070119Y-104500919D01*
X154917738Y-104539014D01*
X154651071Y-104539014D01*
X154498690Y-104500919D01*
X154422500Y-104424728D01*
X154384404Y-104348538D01*
X155184404Y-103662823D02*
X154384404Y-103662823D01*
X155184404Y-103205680D01*
X154384404Y-103205680D01*
D10*
X171906500Y-77818300D02*
X171906500Y-46830300D01*
X192734500Y-77818300D02*
X171906500Y-77818300D01*
X192734500Y-46830300D02*
X192734500Y-77818300D01*
X171906500Y-46830300D02*
X192734500Y-46830300D01*
D11*
X175212404Y-73360538D02*
X175212404Y-73208157D01*
X175250500Y-73131966D01*
X175326690Y-73055776D01*
X175479071Y-73017680D01*
X175745738Y-73017680D01*
X175898119Y-73055776D01*
X175974309Y-73131966D01*
X176012404Y-73208157D01*
X176012404Y-73360538D01*
X175974309Y-73436728D01*
X175898119Y-73512919D01*
X175745738Y-73551014D01*
X175479071Y-73551014D01*
X175326690Y-73512919D01*
X175250500Y-73436728D01*
X175212404Y-73360538D01*
X176012404Y-72674823D02*
X175212404Y-72674823D01*
X176012404Y-72217680D01*
X175212404Y-72217680D01*
X184940690Y-76110109D02*
X185054976Y-76148204D01*
X185245452Y-76148204D01*
X185321642Y-76110109D01*
X185359738Y-76072014D01*
X185397833Y-75995823D01*
X185397833Y-75919633D01*
X185359738Y-75843442D01*
X185321642Y-75805347D01*
X185245452Y-75767252D01*
X185093071Y-75729157D01*
X185016880Y-75691061D01*
X184978785Y-75652966D01*
X184940690Y-75576776D01*
X184940690Y-75500585D01*
X184978785Y-75424395D01*
X185016880Y-75386300D01*
X185093071Y-75348204D01*
X185283547Y-75348204D01*
X185397833Y-75386300D01*
X185740690Y-76148204D02*
X185740690Y-75614871D01*
X185740690Y-75348204D02*
X185702595Y-75386300D01*
X185740690Y-75424395D01*
X185778785Y-75386300D01*
X185740690Y-75348204D01*
X185740690Y-75424395D01*
X186121642Y-75614871D02*
X186121642Y-76148204D01*
X186121642Y-75691061D02*
X186159738Y-75652966D01*
X186235928Y-75614871D01*
X186350214Y-75614871D01*
X186426404Y-75652966D01*
X186464500Y-75729157D01*
X186464500Y-76148204D01*
X187150214Y-76110109D02*
X187074023Y-76148204D01*
X186921642Y-76148204D01*
X186845452Y-76110109D01*
X186807357Y-76033919D01*
X186807357Y-75729157D01*
X186845452Y-75652966D01*
X186921642Y-75614871D01*
X187074023Y-75614871D01*
X187150214Y-75652966D01*
X187188309Y-75729157D01*
X187188309Y-75805347D01*
X186807357Y-75881538D01*
D10*
X151078500Y-77818300D02*
X151078500Y-46830300D01*
X171906500Y-77818300D02*
X151078500Y-77818300D01*
X171906500Y-46830300D02*
X171906500Y-77818300D01*
X151078500Y-46830300D02*
X171906500Y-46830300D01*
D11*
X154384404Y-73360538D02*
X154384404Y-73208157D01*
X154422500Y-73131966D01*
X154498690Y-73055776D01*
X154651071Y-73017680D01*
X154917738Y-73017680D01*
X155070119Y-73055776D01*
X155146309Y-73131966D01*
X155184404Y-73208157D01*
X155184404Y-73360538D01*
X155146309Y-73436728D01*
X155070119Y-73512919D01*
X154917738Y-73551014D01*
X154651071Y-73551014D01*
X154498690Y-73512919D01*
X154422500Y-73436728D01*
X154384404Y-73360538D01*
X155184404Y-72674823D02*
X154384404Y-72674823D01*
X155184404Y-72217680D01*
X154384404Y-72217680D01*
X164112690Y-76110109D02*
X164226976Y-76148204D01*
X164417452Y-76148204D01*
X164493642Y-76110109D01*
X164531738Y-76072014D01*
X164569833Y-75995823D01*
X164569833Y-75919633D01*
X164531738Y-75843442D01*
X164493642Y-75805347D01*
X164417452Y-75767252D01*
X164265071Y-75729157D01*
X164188880Y-75691061D01*
X164150785Y-75652966D01*
X164112690Y-75576776D01*
X164112690Y-75500585D01*
X164150785Y-75424395D01*
X164188880Y-75386300D01*
X164265071Y-75348204D01*
X164455547Y-75348204D01*
X164569833Y-75386300D01*
X164912690Y-76148204D02*
X164912690Y-75614871D01*
X164912690Y-75348204D02*
X164874595Y-75386300D01*
X164912690Y-75424395D01*
X164950785Y-75386300D01*
X164912690Y-75348204D01*
X164912690Y-75424395D01*
X165293642Y-75614871D02*
X165293642Y-76148204D01*
X165293642Y-75691061D02*
X165331738Y-75652966D01*
X165407928Y-75614871D01*
X165522214Y-75614871D01*
X165598404Y-75652966D01*
X165636500Y-75729157D01*
X165636500Y-76148204D01*
X166322214Y-76110109D02*
X166246023Y-76148204D01*
X166093642Y-76148204D01*
X166017452Y-76110109D01*
X165979357Y-76033919D01*
X165979357Y-75729157D01*
X166017452Y-75652966D01*
X166093642Y-75614871D01*
X166246023Y-75614871D01*
X166322214Y-75652966D01*
X166360309Y-75729157D01*
X166360309Y-75805347D01*
X165979357Y-75881538D01*
D10*
X130250500Y-77818300D02*
X130250500Y-46830300D01*
X151078500Y-77818300D02*
X130250500Y-77818300D01*
X151078500Y-46830300D02*
X151078500Y-77818300D01*
X130250500Y-46830300D02*
X151078500Y-46830300D01*
D11*
X133556404Y-73360538D02*
X133556404Y-73208157D01*
X133594500Y-73131966D01*
X133670690Y-73055776D01*
X133823071Y-73017680D01*
X134089738Y-73017680D01*
X134242119Y-73055776D01*
X134318309Y-73131966D01*
X134356404Y-73208157D01*
X134356404Y-73360538D01*
X134318309Y-73436728D01*
X134242119Y-73512919D01*
X134089738Y-73551014D01*
X133823071Y-73551014D01*
X133670690Y-73512919D01*
X133594500Y-73436728D01*
X133556404Y-73360538D01*
X134356404Y-72674823D02*
X133556404Y-72674823D01*
X134356404Y-72217680D01*
X133556404Y-72217680D01*
X143284690Y-76110109D02*
X143398976Y-76148204D01*
X143589452Y-76148204D01*
X143665642Y-76110109D01*
X143703738Y-76072014D01*
X143741833Y-75995823D01*
X143741833Y-75919633D01*
X143703738Y-75843442D01*
X143665642Y-75805347D01*
X143589452Y-75767252D01*
X143437071Y-75729157D01*
X143360880Y-75691061D01*
X143322785Y-75652966D01*
X143284690Y-75576776D01*
X143284690Y-75500585D01*
X143322785Y-75424395D01*
X143360880Y-75386300D01*
X143437071Y-75348204D01*
X143627547Y-75348204D01*
X143741833Y-75386300D01*
X144084690Y-76148204D02*
X144084690Y-75614871D01*
X144084690Y-75348204D02*
X144046595Y-75386300D01*
X144084690Y-75424395D01*
X144122785Y-75386300D01*
X144084690Y-75348204D01*
X144084690Y-75424395D01*
X144465642Y-75614871D02*
X144465642Y-76148204D01*
X144465642Y-75691061D02*
X144503738Y-75652966D01*
X144579928Y-75614871D01*
X144694214Y-75614871D01*
X144770404Y-75652966D01*
X144808500Y-75729157D01*
X144808500Y-76148204D01*
X145494214Y-76110109D02*
X145418023Y-76148204D01*
X145265642Y-76148204D01*
X145189452Y-76110109D01*
X145151357Y-76033919D01*
X145151357Y-75729157D01*
X145189452Y-75652966D01*
X145265642Y-75614871D01*
X145418023Y-75614871D01*
X145494214Y-75652966D01*
X145532309Y-75729157D01*
X145532309Y-75805347D01*
X145151357Y-75881538D01*
D10*
X109422500Y-77818300D02*
X109422500Y-46830300D01*
X130250500Y-77818300D02*
X109422500Y-77818300D01*
X130250500Y-46830300D02*
X130250500Y-77818300D01*
X109422500Y-46830300D02*
X130250500Y-46830300D01*
D12*
X106588880Y-96915347D02*
X107303166Y-96915347D01*
X107446023Y-96962966D01*
X107541261Y-97058204D01*
X107588880Y-97201061D01*
X107588880Y-97296300D01*
X107588880Y-95962966D02*
X107588880Y-96439157D01*
X106588880Y-96439157D01*
X107493642Y-95058204D02*
X107541261Y-95105823D01*
X107588880Y-95248680D01*
X107588880Y-95343919D01*
X107541261Y-95486776D01*
X107446023Y-95582014D01*
X107350785Y-95629633D01*
X107160309Y-95677252D01*
X107017452Y-95677252D01*
X106826976Y-95629633D01*
X106731738Y-95582014D01*
X106636500Y-95486776D01*
X106588880Y-95343919D01*
X106588880Y-95248680D01*
X106636500Y-95105823D01*
X106684119Y-95058204D01*
X106588880Y-94343919D02*
X107303166Y-94343919D01*
X107446023Y-94391538D01*
X107541261Y-94486776D01*
X107588880Y-94629633D01*
X107588880Y-94724871D01*
X107588880Y-93391538D02*
X107588880Y-93867728D01*
X106588880Y-93867728D01*
X107493642Y-92486776D02*
X107541261Y-92534395D01*
X107588880Y-92677252D01*
X107588880Y-92772490D01*
X107541261Y-92915347D01*
X107446023Y-93010585D01*
X107350785Y-93058204D01*
X107160309Y-93105823D01*
X107017452Y-93105823D01*
X106826976Y-93058204D01*
X106731738Y-93010585D01*
X106636500Y-92915347D01*
X106588880Y-92772490D01*
X106588880Y-92677252D01*
X106636500Y-92534395D01*
X106684119Y-92486776D01*
X106588880Y-91772490D02*
X107303166Y-91772490D01*
X107446023Y-91820109D01*
X107541261Y-91915347D01*
X107588880Y-92058204D01*
X107588880Y-92153442D01*
X107588880Y-90820109D02*
X107588880Y-91296300D01*
X106588880Y-91296300D01*
X107493642Y-89915347D02*
X107541261Y-89962966D01*
X107588880Y-90105823D01*
X107588880Y-90201061D01*
X107541261Y-90343919D01*
X107446023Y-90439157D01*
X107350785Y-90486776D01*
X107160309Y-90534395D01*
X107017452Y-90534395D01*
X106826976Y-90486776D01*
X106731738Y-90439157D01*
X106636500Y-90343919D01*
X106588880Y-90201061D01*
X106588880Y-90105823D01*
X106636500Y-89962966D01*
X106684119Y-89915347D01*
X106588880Y-89201061D02*
X107303166Y-89201061D01*
X107446023Y-89248680D01*
X107541261Y-89343919D01*
X107588880Y-89486776D01*
X107588880Y-89582014D01*
X107588880Y-88248680D02*
X107588880Y-88724871D01*
X106588880Y-88724871D01*
X107493642Y-87343919D02*
X107541261Y-87391538D01*
X107588880Y-87534395D01*
X107588880Y-87629633D01*
X107541261Y-87772490D01*
X107446023Y-87867728D01*
X107350785Y-87915347D01*
X107160309Y-87962966D01*
X107017452Y-87962966D01*
X106826976Y-87915347D01*
X106731738Y-87867728D01*
X106636500Y-87772490D01*
X106588880Y-87629633D01*
X106588880Y-87534395D01*
X106636500Y-87391538D01*
X106684119Y-87343919D01*
D11*
X112728404Y-73360538D02*
X112728404Y-73208157D01*
X112766500Y-73131966D01*
X112842690Y-73055776D01*
X112995071Y-73017680D01*
X113261738Y-73017680D01*
X113414119Y-73055776D01*
X113490309Y-73131966D01*
X113528404Y-73208157D01*
X113528404Y-73360538D01*
X113490309Y-73436728D01*
X113414119Y-73512919D01*
X113261738Y-73551014D01*
X112995071Y-73551014D01*
X112842690Y-73512919D01*
X112766500Y-73436728D01*
X112728404Y-73360538D01*
X113528404Y-72674823D02*
X112728404Y-72674823D01*
X113528404Y-72217680D01*
X112728404Y-72217680D01*
X122456690Y-76110109D02*
X122570976Y-76148204D01*
X122761452Y-76148204D01*
X122837642Y-76110109D01*
X122875738Y-76072014D01*
X122913833Y-75995823D01*
X122913833Y-75919633D01*
X122875738Y-75843442D01*
X122837642Y-75805347D01*
X122761452Y-75767252D01*
X122609071Y-75729157D01*
X122532880Y-75691061D01*
X122494785Y-75652966D01*
X122456690Y-75576776D01*
X122456690Y-75500585D01*
X122494785Y-75424395D01*
X122532880Y-75386300D01*
X122609071Y-75348204D01*
X122799547Y-75348204D01*
X122913833Y-75386300D01*
X123256690Y-76148204D02*
X123256690Y-75614871D01*
X123256690Y-75348204D02*
X123218595Y-75386300D01*
X123256690Y-75424395D01*
X123294785Y-75386300D01*
X123256690Y-75348204D01*
X123256690Y-75424395D01*
X123637642Y-75614871D02*
X123637642Y-76148204D01*
X123637642Y-75691061D02*
X123675738Y-75652966D01*
X123751928Y-75614871D01*
X123866214Y-75614871D01*
X123942404Y-75652966D01*
X123980500Y-75729157D01*
X123980500Y-76148204D01*
X124666214Y-76110109D02*
X124590023Y-76148204D01*
X124437642Y-76148204D01*
X124361452Y-76110109D01*
X124323357Y-76033919D01*
X124323357Y-75729157D01*
X124361452Y-75652966D01*
X124437642Y-75614871D01*
X124590023Y-75614871D01*
X124666214Y-75652966D01*
X124704309Y-75729157D01*
X124704309Y-75805347D01*
X124323357Y-75881538D01*
D13*
X180311020Y-132193140D02*
X180311020Y-131791820D01*
X184690500Y-132201300D02*
X184689980Y-131812140D01*
X180310500Y-135761300D02*
X180310500Y-132201300D01*
X182500500Y-135761300D02*
X180310500Y-135761300D01*
X184690500Y-135761300D02*
X184690500Y-132201300D01*
X182500500Y-135761300D02*
X184690500Y-135761300D01*
X173039500Y-133714300D02*
X173039500Y-136399300D01*
X173039500Y-136399300D02*
X174959500Y-136399300D01*
X174959500Y-136399300D02*
X174959500Y-133714300D01*
X159483020Y-132193140D02*
X159483020Y-131791820D01*
X163862500Y-132201300D02*
X163861980Y-131812140D01*
X159482500Y-135761300D02*
X159482500Y-132201300D01*
X161672500Y-135761300D02*
X159482500Y-135761300D01*
X163862500Y-135761300D02*
X163862500Y-132201300D01*
X161672500Y-135761300D02*
X163862500Y-135761300D01*
X152211500Y-133714300D02*
X152211500Y-136399300D01*
X152211500Y-136399300D02*
X154131500Y-136399300D01*
X154131500Y-136399300D02*
X154131500Y-133714300D01*
X138655020Y-132193140D02*
X138655020Y-131791820D01*
X143034500Y-132201300D02*
X143033980Y-131812140D01*
X138654500Y-135761300D02*
X138654500Y-132201300D01*
X140844500Y-135761300D02*
X138654500Y-135761300D01*
X143034500Y-135761300D02*
X143034500Y-132201300D01*
X140844500Y-135761300D02*
X143034500Y-135761300D01*
X131383500Y-133714300D02*
X131383500Y-136399300D01*
X131383500Y-136399300D02*
X133303500Y-136399300D01*
X133303500Y-136399300D02*
X133303500Y-133714300D01*
X120016500Y-135761300D02*
X122206500Y-135761300D01*
X122206500Y-135761300D02*
X122206500Y-132201300D01*
X120016500Y-135761300D02*
X117826500Y-135761300D01*
X117826500Y-135761300D02*
X117826500Y-132201300D01*
X122206500Y-132201300D02*
X122205980Y-131812140D01*
X117827020Y-132193140D02*
X117827020Y-131791820D01*
X112475500Y-136399300D02*
X112475500Y-133714300D01*
X110555500Y-136399300D02*
X112475500Y-136399300D01*
X110555500Y-133714300D02*
X110555500Y-136399300D01*
X180311020Y-101205140D02*
X180311020Y-100803820D01*
X184690500Y-101213300D02*
X184689980Y-100824140D01*
X180310500Y-104773300D02*
X180310500Y-101213300D01*
X182500500Y-104773300D02*
X180310500Y-104773300D01*
X184690500Y-104773300D02*
X184690500Y-101213300D01*
X182500500Y-104773300D02*
X184690500Y-104773300D01*
X173039500Y-102726300D02*
X173039500Y-105411300D01*
X173039500Y-105411300D02*
X174959500Y-105411300D01*
X174959500Y-105411300D02*
X174959500Y-102726300D01*
X159483020Y-101205140D02*
X159483020Y-100803820D01*
X163862500Y-101213300D02*
X163861980Y-100824140D01*
X159482500Y-104773300D02*
X159482500Y-101213300D01*
X161672500Y-104773300D02*
X159482500Y-104773300D01*
X163862500Y-104773300D02*
X163862500Y-101213300D01*
X161672500Y-104773300D02*
X163862500Y-104773300D01*
X152211500Y-102726300D02*
X152211500Y-105411300D01*
X152211500Y-105411300D02*
X154131500Y-105411300D01*
X154131500Y-105411300D02*
X154131500Y-102726300D01*
X138655020Y-101205140D02*
X138655020Y-100803820D01*
X143034500Y-101213300D02*
X143033980Y-100824140D01*
X138654500Y-104773300D02*
X138654500Y-101213300D01*
X140844500Y-104773300D02*
X138654500Y-104773300D01*
X143034500Y-104773300D02*
X143034500Y-101213300D01*
X140844500Y-104773300D02*
X143034500Y-104773300D01*
X131383500Y-102726300D02*
X131383500Y-105411300D01*
X131383500Y-105411300D02*
X133303500Y-105411300D01*
X133303500Y-105411300D02*
X133303500Y-102726300D01*
X120016500Y-104773300D02*
X122206500Y-104773300D01*
X122206500Y-104773300D02*
X122206500Y-101213300D01*
X120016500Y-104773300D02*
X117826500Y-104773300D01*
X117826500Y-104773300D02*
X117826500Y-101213300D01*
X122206500Y-101213300D02*
X122205980Y-100824140D01*
X117827020Y-101205140D02*
X117827020Y-100803820D01*
X112475500Y-105411300D02*
X112475500Y-102726300D01*
X110555500Y-105411300D02*
X112475500Y-105411300D01*
X110555500Y-102726300D02*
X110555500Y-105411300D01*
X182500500Y-73785300D02*
X184690500Y-73785300D01*
X184690500Y-73785300D02*
X184690500Y-70225300D01*
X182500500Y-73785300D02*
X180310500Y-73785300D01*
X180310500Y-73785300D02*
X180310500Y-70225300D01*
X184690500Y-70225300D02*
X184689980Y-69836140D01*
X180311020Y-70217140D02*
X180311020Y-69815820D01*
X174959500Y-74423300D02*
X174959500Y-71738300D01*
X173039500Y-74423300D02*
X174959500Y-74423300D01*
X173039500Y-71738300D02*
X173039500Y-74423300D01*
X161672500Y-73785300D02*
X163862500Y-73785300D01*
X163862500Y-73785300D02*
X163862500Y-70225300D01*
X161672500Y-73785300D02*
X159482500Y-73785300D01*
X159482500Y-73785300D02*
X159482500Y-70225300D01*
X163862500Y-70225300D02*
X163861980Y-69836140D01*
X159483020Y-70217140D02*
X159483020Y-69815820D01*
X154131500Y-74423300D02*
X154131500Y-71738300D01*
X152211500Y-74423300D02*
X154131500Y-74423300D01*
X152211500Y-71738300D02*
X152211500Y-74423300D01*
X140844500Y-73785300D02*
X143034500Y-73785300D01*
X143034500Y-73785300D02*
X143034500Y-70225300D01*
X140844500Y-73785300D02*
X138654500Y-73785300D01*
X138654500Y-73785300D02*
X138654500Y-70225300D01*
X143034500Y-70225300D02*
X143033980Y-69836140D01*
X138655020Y-70217140D02*
X138655020Y-69815820D01*
X133303500Y-74423300D02*
X133303500Y-71738300D01*
X131383500Y-74423300D02*
X133303500Y-74423300D01*
X131383500Y-71738300D02*
X131383500Y-74423300D01*
X110555500Y-71738300D02*
X110555500Y-74423300D01*
X110555500Y-74423300D02*
X112475500Y-74423300D01*
X112475500Y-74423300D02*
X112475500Y-71738300D01*
X117827020Y-70217140D02*
X117827020Y-69815820D01*
X122206500Y-70225300D02*
X122205980Y-69836140D01*
X117826500Y-73785300D02*
X117826500Y-70225300D01*
X120016500Y-73785300D02*
X117826500Y-73785300D01*
X122206500Y-73785300D02*
X122206500Y-70225300D01*
X120016500Y-73785300D02*
X122206500Y-73785300D01*
D12*
X182429071Y-120860514D02*
X182476690Y-120717657D01*
X182524309Y-120670038D01*
X182619547Y-120622419D01*
X182762404Y-120622419D01*
X182857642Y-120670038D01*
X182905261Y-120717657D01*
X182952880Y-120812895D01*
X182952880Y-121193847D01*
X181952880Y-121193847D01*
X181952880Y-120860514D01*
X182000500Y-120765276D01*
X182048119Y-120717657D01*
X182143357Y-120670038D01*
X182238595Y-120670038D01*
X182333833Y-120717657D01*
X182381452Y-120765276D01*
X182429071Y-120860514D01*
X182429071Y-121193847D01*
X181952880Y-120336704D02*
X181952880Y-119765276D01*
X182952880Y-120050990D02*
X181952880Y-120050990D01*
X182952880Y-118908133D02*
X182952880Y-119479561D01*
X182952880Y-119193847D02*
X181952880Y-119193847D01*
X182095738Y-119289085D01*
X182190976Y-119384323D01*
X182238595Y-119479561D01*
D14*
X182943385Y-130130517D02*
X182943385Y-127844802D01*
X184086242Y-128987660D02*
X181800528Y-128987660D01*
D12*
X161601071Y-120860514D02*
X161648690Y-120717657D01*
X161696309Y-120670038D01*
X161791547Y-120622419D01*
X161934404Y-120622419D01*
X162029642Y-120670038D01*
X162077261Y-120717657D01*
X162124880Y-120812895D01*
X162124880Y-121193847D01*
X161124880Y-121193847D01*
X161124880Y-120860514D01*
X161172500Y-120765276D01*
X161220119Y-120717657D01*
X161315357Y-120670038D01*
X161410595Y-120670038D01*
X161505833Y-120717657D01*
X161553452Y-120765276D01*
X161601071Y-120860514D01*
X161601071Y-121193847D01*
X161124880Y-120336704D02*
X161124880Y-119765276D01*
X162124880Y-120050990D02*
X161124880Y-120050990D01*
X162124880Y-118908133D02*
X162124880Y-119479561D01*
X162124880Y-119193847D02*
X161124880Y-119193847D01*
X161267738Y-119289085D01*
X161362976Y-119384323D01*
X161410595Y-119479561D01*
D14*
X162115385Y-130130517D02*
X162115385Y-127844802D01*
X163258242Y-128987660D02*
X160972528Y-128987660D01*
D12*
X140773071Y-120860514D02*
X140820690Y-120717657D01*
X140868309Y-120670038D01*
X140963547Y-120622419D01*
X141106404Y-120622419D01*
X141201642Y-120670038D01*
X141249261Y-120717657D01*
X141296880Y-120812895D01*
X141296880Y-121193847D01*
X140296880Y-121193847D01*
X140296880Y-120860514D01*
X140344500Y-120765276D01*
X140392119Y-120717657D01*
X140487357Y-120670038D01*
X140582595Y-120670038D01*
X140677833Y-120717657D01*
X140725452Y-120765276D01*
X140773071Y-120860514D01*
X140773071Y-121193847D01*
X140296880Y-120336704D02*
X140296880Y-119765276D01*
X141296880Y-120050990D02*
X140296880Y-120050990D01*
X141296880Y-118908133D02*
X141296880Y-119479561D01*
X141296880Y-119193847D02*
X140296880Y-119193847D01*
X140439738Y-119289085D01*
X140534976Y-119384323D01*
X140582595Y-119479561D01*
D14*
X141287385Y-130130517D02*
X141287385Y-127844802D01*
X142430242Y-128987660D02*
X140144528Y-128987660D01*
D12*
X119945071Y-120860514D02*
X119992690Y-120717657D01*
X120040309Y-120670038D01*
X120135547Y-120622419D01*
X120278404Y-120622419D01*
X120373642Y-120670038D01*
X120421261Y-120717657D01*
X120468880Y-120812895D01*
X120468880Y-121193847D01*
X119468880Y-121193847D01*
X119468880Y-120860514D01*
X119516500Y-120765276D01*
X119564119Y-120717657D01*
X119659357Y-120670038D01*
X119754595Y-120670038D01*
X119849833Y-120717657D01*
X119897452Y-120765276D01*
X119945071Y-120860514D01*
X119945071Y-121193847D01*
X119468880Y-120336704D02*
X119468880Y-119765276D01*
X120468880Y-120050990D02*
X119468880Y-120050990D01*
X120468880Y-118908133D02*
X120468880Y-119479561D01*
X120468880Y-119193847D02*
X119468880Y-119193847D01*
X119611738Y-119289085D01*
X119706976Y-119384323D01*
X119754595Y-119479561D01*
D14*
X120459385Y-130130517D02*
X120459385Y-127844802D01*
X121602242Y-128987660D02*
X119316528Y-128987660D01*
D12*
X182429071Y-89872514D02*
X182476690Y-89729657D01*
X182524309Y-89682038D01*
X182619547Y-89634419D01*
X182762404Y-89634419D01*
X182857642Y-89682038D01*
X182905261Y-89729657D01*
X182952880Y-89824895D01*
X182952880Y-90205847D01*
X181952880Y-90205847D01*
X181952880Y-89872514D01*
X182000500Y-89777276D01*
X182048119Y-89729657D01*
X182143357Y-89682038D01*
X182238595Y-89682038D01*
X182333833Y-89729657D01*
X182381452Y-89777276D01*
X182429071Y-89872514D01*
X182429071Y-90205847D01*
X181952880Y-89348704D02*
X181952880Y-88777276D01*
X182952880Y-89062990D02*
X181952880Y-89062990D01*
X182952880Y-87920133D02*
X182952880Y-88491561D01*
X182952880Y-88205847D02*
X181952880Y-88205847D01*
X182095738Y-88301085D01*
X182190976Y-88396323D01*
X182238595Y-88491561D01*
D14*
X182943385Y-99142517D02*
X182943385Y-96856802D01*
X184086242Y-97999660D02*
X181800528Y-97999660D01*
D12*
X161601071Y-89872514D02*
X161648690Y-89729657D01*
X161696309Y-89682038D01*
X161791547Y-89634419D01*
X161934404Y-89634419D01*
X162029642Y-89682038D01*
X162077261Y-89729657D01*
X162124880Y-89824895D01*
X162124880Y-90205847D01*
X161124880Y-90205847D01*
X161124880Y-89872514D01*
X161172500Y-89777276D01*
X161220119Y-89729657D01*
X161315357Y-89682038D01*
X161410595Y-89682038D01*
X161505833Y-89729657D01*
X161553452Y-89777276D01*
X161601071Y-89872514D01*
X161601071Y-90205847D01*
X161124880Y-89348704D02*
X161124880Y-88777276D01*
X162124880Y-89062990D02*
X161124880Y-89062990D01*
X162124880Y-87920133D02*
X162124880Y-88491561D01*
X162124880Y-88205847D02*
X161124880Y-88205847D01*
X161267738Y-88301085D01*
X161362976Y-88396323D01*
X161410595Y-88491561D01*
D14*
X162115385Y-99142517D02*
X162115385Y-96856802D01*
X163258242Y-97999660D02*
X160972528Y-97999660D01*
D12*
X140773071Y-89872514D02*
X140820690Y-89729657D01*
X140868309Y-89682038D01*
X140963547Y-89634419D01*
X141106404Y-89634419D01*
X141201642Y-89682038D01*
X141249261Y-89729657D01*
X141296880Y-89824895D01*
X141296880Y-90205847D01*
X140296880Y-90205847D01*
X140296880Y-89872514D01*
X140344500Y-89777276D01*
X140392119Y-89729657D01*
X140487357Y-89682038D01*
X140582595Y-89682038D01*
X140677833Y-89729657D01*
X140725452Y-89777276D01*
X140773071Y-89872514D01*
X140773071Y-90205847D01*
X140296880Y-89348704D02*
X140296880Y-88777276D01*
X141296880Y-89062990D02*
X140296880Y-89062990D01*
X141296880Y-87920133D02*
X141296880Y-88491561D01*
X141296880Y-88205847D02*
X140296880Y-88205847D01*
X140439738Y-88301085D01*
X140534976Y-88396323D01*
X140582595Y-88491561D01*
D14*
X141287385Y-99142517D02*
X141287385Y-96856802D01*
X142430242Y-97999660D02*
X140144528Y-97999660D01*
D12*
X119945071Y-89872514D02*
X119992690Y-89729657D01*
X120040309Y-89682038D01*
X120135547Y-89634419D01*
X120278404Y-89634419D01*
X120373642Y-89682038D01*
X120421261Y-89729657D01*
X120468880Y-89824895D01*
X120468880Y-90205847D01*
X119468880Y-90205847D01*
X119468880Y-89872514D01*
X119516500Y-89777276D01*
X119564119Y-89729657D01*
X119659357Y-89682038D01*
X119754595Y-89682038D01*
X119849833Y-89729657D01*
X119897452Y-89777276D01*
X119945071Y-89872514D01*
X119945071Y-90205847D01*
X119468880Y-89348704D02*
X119468880Y-88777276D01*
X120468880Y-89062990D02*
X119468880Y-89062990D01*
X120468880Y-87920133D02*
X120468880Y-88491561D01*
X120468880Y-88205847D02*
X119468880Y-88205847D01*
X119611738Y-88301085D01*
X119706976Y-88396323D01*
X119754595Y-88491561D01*
D14*
X120459385Y-99142517D02*
X120459385Y-96856802D01*
X121602242Y-97999660D02*
X119316528Y-97999660D01*
D12*
X182429071Y-58884514D02*
X182476690Y-58741657D01*
X182524309Y-58694038D01*
X182619547Y-58646419D01*
X182762404Y-58646419D01*
X182857642Y-58694038D01*
X182905261Y-58741657D01*
X182952880Y-58836895D01*
X182952880Y-59217847D01*
X181952880Y-59217847D01*
X181952880Y-58884514D01*
X182000500Y-58789276D01*
X182048119Y-58741657D01*
X182143357Y-58694038D01*
X182238595Y-58694038D01*
X182333833Y-58741657D01*
X182381452Y-58789276D01*
X182429071Y-58884514D01*
X182429071Y-59217847D01*
X181952880Y-58360704D02*
X181952880Y-57789276D01*
X182952880Y-58074990D02*
X181952880Y-58074990D01*
X182952880Y-56932133D02*
X182952880Y-57503561D01*
X182952880Y-57217847D02*
X181952880Y-57217847D01*
X182095738Y-57313085D01*
X182190976Y-57408323D01*
X182238595Y-57503561D01*
D14*
X182943385Y-68154517D02*
X182943385Y-65868802D01*
X184086242Y-67011660D02*
X181800528Y-67011660D01*
D12*
X161601071Y-58884514D02*
X161648690Y-58741657D01*
X161696309Y-58694038D01*
X161791547Y-58646419D01*
X161934404Y-58646419D01*
X162029642Y-58694038D01*
X162077261Y-58741657D01*
X162124880Y-58836895D01*
X162124880Y-59217847D01*
X161124880Y-59217847D01*
X161124880Y-58884514D01*
X161172500Y-58789276D01*
X161220119Y-58741657D01*
X161315357Y-58694038D01*
X161410595Y-58694038D01*
X161505833Y-58741657D01*
X161553452Y-58789276D01*
X161601071Y-58884514D01*
X161601071Y-59217847D01*
X161124880Y-58360704D02*
X161124880Y-57789276D01*
X162124880Y-58074990D02*
X161124880Y-58074990D01*
X162124880Y-56932133D02*
X162124880Y-57503561D01*
X162124880Y-57217847D02*
X161124880Y-57217847D01*
X161267738Y-57313085D01*
X161362976Y-57408323D01*
X161410595Y-57503561D01*
D14*
X162115385Y-68154517D02*
X162115385Y-65868802D01*
X163258242Y-67011660D02*
X160972528Y-67011660D01*
D12*
X140773071Y-58884514D02*
X140820690Y-58741657D01*
X140868309Y-58694038D01*
X140963547Y-58646419D01*
X141106404Y-58646419D01*
X141201642Y-58694038D01*
X141249261Y-58741657D01*
X141296880Y-58836895D01*
X141296880Y-59217847D01*
X140296880Y-59217847D01*
X140296880Y-58884514D01*
X140344500Y-58789276D01*
X140392119Y-58741657D01*
X140487357Y-58694038D01*
X140582595Y-58694038D01*
X140677833Y-58741657D01*
X140725452Y-58789276D01*
X140773071Y-58884514D01*
X140773071Y-59217847D01*
X140296880Y-58360704D02*
X140296880Y-57789276D01*
X141296880Y-58074990D02*
X140296880Y-58074990D01*
X141296880Y-56932133D02*
X141296880Y-57503561D01*
X141296880Y-57217847D02*
X140296880Y-57217847D01*
X140439738Y-57313085D01*
X140534976Y-57408323D01*
X140582595Y-57503561D01*
D14*
X141287385Y-68154517D02*
X141287385Y-65868802D01*
X142430242Y-67011660D02*
X140144528Y-67011660D01*
D12*
X119945071Y-58884514D02*
X119992690Y-58741657D01*
X120040309Y-58694038D01*
X120135547Y-58646419D01*
X120278404Y-58646419D01*
X120373642Y-58694038D01*
X120421261Y-58741657D01*
X120468880Y-58836895D01*
X120468880Y-59217847D01*
X119468880Y-59217847D01*
X119468880Y-58884514D01*
X119516500Y-58789276D01*
X119564119Y-58741657D01*
X119659357Y-58694038D01*
X119754595Y-58694038D01*
X119849833Y-58741657D01*
X119897452Y-58789276D01*
X119945071Y-58884514D01*
X119945071Y-59217847D01*
X119468880Y-58360704D02*
X119468880Y-57789276D01*
X120468880Y-58074990D02*
X119468880Y-58074990D01*
X120468880Y-56932133D02*
X120468880Y-57503561D01*
X120468880Y-57217847D02*
X119468880Y-57217847D01*
X119611738Y-57313085D01*
X119706976Y-57408323D01*
X119754595Y-57503561D01*
D14*
X120459385Y-68154517D02*
X120459385Y-65868802D01*
X121602242Y-67011660D02*
X119316528Y-67011660D01*
M02*
